<?xml version="1.0" encoding="utf-8"?>
<svg viewBox="265.155 44.062 200 145.195" width="200" height="145.195" xmlns="http://www.w3.org/2000/svg">
  <defs/>
  <path d="M 289.643 90.461 C 289.643 76.612 288.251 74.163 284.62 74.163 C 281.412 74.163 278.625 75.599 275.585 75.599 C 268.786 75.599 265.155 68.168 265.155 62.133 C 265.155 53.519 270.181 46.889 279.216 46.889 C 285.421 46.889 291.67 48.875 298.087 48.875 C 302.9 48.875 309.149 46.889 315.357 46.889 C 322.997 46.889 324.392 49.889 324.392 61.329 L 324.392 143.067 C 324.392 155.311 325.405 159.324 329.414 159.324 C 332.623 159.324 335.454 157.929 338.45 157.929 C 345.29 157.929 348.88 165.36 348.88 171.355 C 348.88 180.012 343.854 186.639 334.819 186.639 C 324.602 186.639 316.961 184.612 307.335 184.612 C 297.074 184.612 287.069 186.639 276.808 186.639 C 270.181 186.639 265.155 180.012 265.155 171.355 C 265.155 165.36 268.786 157.929 275.585 157.929 C 278.625 157.929 281.412 159.324 284.62 159.324 C 288.674 159.324 289.643 155.311 289.643 143.067 L 289.643 90.461 Z M 420.992 84.425 C 420.992 75.389 411.322 71.167 403.722 71.167 C 398.278 71.167 393.252 71.968 388.861 75.177 C 391.478 78.385 392.874 81.425 392.874 85.647 C 392.874 97.26 383.204 104.522 372.395 104.522 C 360.151 104.522 351.92 94.261 351.92 82.607 C 351.92 54.111 382.234 44.062 405.918 44.062 C 432.432 44.062 458.315 55.924 458.315 86.029 C 458.315 114.739 431.21 124.997 408.114 132.218 C 397.096 135.805 379.025 140.027 378.012 153.707 L 378.39 154.089 C 382.612 147.036 390.256 142.773 398.487 142.858 C 406.931 142.858 413.349 147.08 419.175 151.302 C 424.792 155.524 429.606 159.702 434.841 159.702 C 437.246 159.702 439.232 158.098 441.046 156.493 C 433.828 155.693 428.592 150.289 428.592 142.858 C 428.592 134.201 436.023 127.615 444.467 127.615 C 458.102 127.615 465.155 140.663 465.155 153.075 C 465.155 170.764 451.685 189.257 433.024 189.257 C 422.597 189.257 414.152 184.021 407.735 178.786 C 401.318 173.595 396.292 168.569 392.452 168.569 C 390.634 168.569 390.043 169.159 390.256 174.564 C 390.256 183.812 381.812 189.257 372.986 189.257 C 356.31 189.257 347.698 173.381 347.698 158.311 C 347.698 131.205 370.581 116.765 393.252 107.308 C 403.513 103.086 420.992 97.682 420.992 84.425"/>
    <style>
        path { fill: #000; }
        @media (prefers-color-scheme: dark) {
            path { fill: #FFF; }
        }
    </style>
</svg>
